<?xml version="1.0" encoding="UTF-8"?>
<svg width="11px" height="20px" viewBox="0 0 11 20" version="1.1" xmlns="http://www.w3.org/2000/svg" xmlns:xlink="http://www.w3.org/1999/xlink">
    <!-- Generator: Sketch 53 (72520) - https://sketchapp.com -->
    <title>Shape</title>
    <desc>Created with Sketch.</desc>
    <g id="Page-1" stroke="none" stroke-width="1" fill="none" fill-rule="evenodd">
        <g id="FC---Web-Series-Dashboard-Copy-2" transform="translate(-291.000000, -332.000000)" fill="#FFFFFF" fill-rule="nonzero">
            <g id="Group-7" transform="translate(167.000000, 274.000000)">
                <g id="Revenue-Row-2">
                    <g id="Revenue-Row">
                        <g id="Card-01">
                            <g id="Group-6" transform="translate(109.000000, 48.000000)">
                                <path d="M21.3218621,30 L21.3218621,27.90875 C22.6509651,27.700625 23.6890947,27.13375 24.4362507,26.209375 C25.1822634,25.285 25.5555556,24.148125 25.5555556,22.8 C25.5555556,21.5925 25.2588655,20.6025 24.6660569,19.83125 C24.0726767,19.06 22.9585167,18.43125 21.3218621,17.946875 L21.3218621,13.5775 C21.9832695,13.890625 22.3920044,14.486875 22.5486385,15.365625 L25.1359591,14.99625 C24.9581737,13.87875 24.5494388,12.98625 23.9091827,12.319375 C23.2677833,11.651875 22.4051525,11.2475 21.3212904,11.10625 L21.3212904,10 L19.8395549,10 L19.8395549,11.10625 C18.6670859,11.233125 17.7272814,11.711875 17.0218564,12.54375 C16.317003,13.37375 15.9637188,14.4 15.9637188,15.6225 C15.9637188,16.83 16.2764153,17.85625 16.9000934,18.703125 C17.5231998,19.54875 18.5030203,20.180625 19.8401265,20.5975 L19.8401265,25.281875 C19.4714076,25.0875 19.1375598,24.774375 18.8380114,24.3425 C18.5378913,23.910625 18.3332381,23.39625 18.2246232,22.8 L15.5555556,23.113125 C15.7602088,24.58125 16.2306827,25.716875 16.9664056,26.5225 C17.7032718,27.326875 18.660226,27.808125 19.8401265,27.964375 L19.8401265,29.999375 L21.3218621,29.999375 L21.3218621,30 Z M21.3218621,21.078125 C21.9352503,21.2725 22.3771413,21.55 22.6458202,21.91125 C22.9156424,22.2725 23.0505536,22.703125 23.0505536,23.2025 C23.0505536,23.76125 22.8893462,24.248125 22.5697898,24.661875 C22.2490901,25.075625 21.8329236,25.335 21.3218621,25.43875 L21.3218621,21.078125 L21.3218621,21.078125 Z M18.8471579,16.589375 C18.6299282,16.25125 18.52017,15.884375 18.52017,15.48875 C18.52017,15.056875 18.6390747,14.66125 18.8785991,14.30375 C19.1169801,13.945 19.4376798,13.6925 19.8401265,13.5425 L19.8401265,17.41125 C19.3959489,17.2025 19.065531,16.92875 18.8471579,16.589375 Z" id="Shape"></path>
                            </g>
                        </g>
                    </g>
                </g>
            </g>
        </g>
    </g>
</svg>