<?xml version="1.0" encoding="UTF-8"?>
<svg width="16px" height="16px" viewBox="0 0 16 16" version="1.1" xmlns="http://www.w3.org/2000/svg" xmlns:xlink="http://www.w3.org/1999/xlink">
    <!-- Generator: Sketch 53 (72520) - https://sketchapp.com -->
    <title>Combined Shape</title>
    <desc>Created with Sketch.</desc>
    <g id="Page-1" stroke="none" stroke-width="1" fill="none" fill-rule="evenodd">
        <g id="FC---Web-Series-Dashboard-Copy-2" transform="translate(-572.000000, -334.000000)" fill="#FFFFFF">
            <g id="Group-7" transform="translate(167.000000, 274.000000)">
                <g id="Revenue-Row-2-Copy" transform="translate(285.000000, 0.000000)">
                    <g id="Revenue-Row">
                        <g id="Card-01">
                            <g id="Group-6" transform="translate(107.000000, 48.000000)">
                                <g id="rss" transform="translate(13.000000, 12.000000)">
                                    <path d="M7.5625,15.53125 C7.5625,11.6540527 4.34594725,8.4375 0.46875,8.4375 C0.310546875,8.4375 0.155639656,8.45092775 0,8.46130372 L0,5.64880372 C0.156494125,5.64135744 0.310546875,5.625 0.46875,5.625 C5.89648438,5.625 10.375,10.1035156 10.375,15.53125 C10.375,15.6894531 10.3586426,15.8435059 10.3511963,16 L7.53869628,16 C7.54907225,15.8443603 7.5625,15.6894531 7.5625,15.53125 Z M0.46875,0 C9.01184081,0 16,6.98803712 16,15.53125 C16,15.6895752 15.980957,15.8428955 15.9763184,16 L13.1636963,16 C13.1695557,15.8431397 13.1875,15.6894531 13.1875,15.53125 C13.1875,8.55261231 7.44738769,2.8125 0.46875,2.8125 C0.310546875,2.8125 0.156860344,2.83044434 0,2.83630372 L0,0.023681625 C0.1571045,0.0190429688 0.310424813,0 0.46875,0 Z M2.375,16 C1.08276369,16 0,14.9172363 0,13.625 C0,12.3327637 1.08276369,11.25 2.375,11.25 C3.66723631,11.25 4.71875,12.3327637 4.71875,13.625 C4.71875,14.9172363 3.66723631,16 2.375,16 Z" id="Combined-Shape"></path>
                                </g>
                            </g>
                        </g>
                    </g>
                </g>
            </g>
        </g>
    </g>
</svg>